<svg xmlns="http://www.w3.org/2000/svg" viewBox="0 0 530.49 86.45">
    <defs>
        <style>.a{fill:#0085ff;}</style>
    </defs>
    <path class="a"
          d="M439,318.29c0,1.28.85,2.32,2.54,3.12a33.33,33.33,0,0,0,6.2,2.11,64,64,0,0,1,7.29,2.31,14.13,14.13,0,0,1,6.19,4.66,12.83,12.83,0,0,1,2.55,8.16c0,4.92-1.84,8.72-5.52,11.37s-8.27,4-13.78,4q-14.77,0-20.16-11.43l10.75-6.05q2.11,6.24,9.41,6.24,6.63,0,6.63-4.12c0-1.28-.85-2.32-2.55-3.13a37.09,37.09,0,0,0-6.19-2.15,65.47,65.47,0,0,1-7.3-2.4,15,15,0,0,1-6.19-4.56,12,12,0,0,1-2.54-7.83,13.4,13.4,0,0,1,5.23-11.18,20.51,20.51,0,0,1,13-4.08A21.73,21.73,0,0,1,455.26,306a19.35,19.35,0,0,1,7.59,7.53l-10.56,5.76a7.91,7.91,0,0,0-7.68-4.89,7.09,7.09,0,0,0-4,1.05A3.32,3.32,0,0,0,439,318.29Z"
          transform="translate(-424.35 -285.46)"/>
    <path class="a"
          d="M497.79,316.56H486.94v20a4.76,4.76,0,0,0,1.25,3.65,5.74,5.74,0,0,0,3.65,1.3,54.79,54.79,0,0,0,6-.05v11.23q-12.77,1.44-18-2.4t-5.23-13.73v-20h-8.35v-11.9h8.35V295l12.38-3.75v13.44h10.85Z"
          transform="translate(-424.35 -285.46)"/>
    <path class="a"
          d="M541.57,304.66H554v48H541.57V347q-5.57,7-15.65,7a21.72,21.72,0,0,1-16.46-7.35,27,27,0,0,1,0-36,21.75,21.75,0,0,1,16.46-7.34q10.08,0,15.65,7Zm-22.85,33.75a12.82,12.82,0,0,0,9.5,3.79,13,13,0,0,0,9.56-3.79,14.42,14.42,0,0,0,0-19.49,13,13,0,0,0-9.56-3.8,12.79,12.79,0,0,0-9.5,3.8,14.57,14.57,0,0,0,0,19.49Z"
          transform="translate(-424.35 -285.46)"/>
    <path class="a"
          d="M596.48,304.66h13.25l-17.47,48q-3.75,10.36-9.94,15t-15.41,4.17V360.34q5,.09,7.92-2.11a14.74,14.74,0,0,0,4.66-7.11l-19.68-46.46h13.53l12.48,32.26Z"
          transform="translate(-424.35 -285.46)"/>
    <path d="M624,318.29q0,1.92,2.55,3.12a33.21,33.21,0,0,0,6.19,2.11,64,64,0,0,1,7.29,2.31,14.16,14.16,0,0,1,6.2,4.66,12.88,12.88,0,0,1,2.54,8.16c0,4.92-1.84,8.72-5.52,11.37s-8.27,4-13.78,4q-14.78,0-20.16-11.43l10.76-6.05q2.1,6.24,9.4,6.24,6.63,0,6.63-4.12c0-1.28-.85-2.32-2.55-3.13a37.09,37.09,0,0,0-6.19-2.15,64.65,64.65,0,0,1-7.29-2.4,15,15,0,0,1-6.2-4.56,12,12,0,0,1-2.54-7.83,13.4,13.4,0,0,1,5.23-11.18,20.53,20.53,0,0,1,13-4.08A21.77,21.77,0,0,1,640.26,306a19.32,19.32,0,0,1,7.58,7.53l-10.56,5.76a7.91,7.91,0,0,0-7.68-4.89,7,7,0,0,0-4,1.05A3.3,3.3,0,0,0,624,318.29Z"
          transform="translate(-424.35 -285.46)"/>
    <path d="M666.56,333.75q2.49,9,13.54,9,7.1,0,10.75-4.8l10,5.76Q693.74,354,679.9,354q-11.89,0-19.1-7.2t-7.2-18.15a24.86,24.86,0,0,1,7.1-18.1q7.11-7.24,18.24-7.24a22.91,22.91,0,0,1,17.43,7.29,25.37,25.37,0,0,1,6.86,18.05,29,29,0,0,1-.48,5.09Zm-.19-9.6h24.48a11.64,11.64,0,0,0-4.37-7.3,12.53,12.53,0,0,0-7.54-2.4,13,13,0,0,0-8.25,2.55A12.1,12.1,0,0,0,666.37,324.15Z"
          transform="translate(-424.35 -285.46)"/>
    <path d="M734.34,354a25.35,25.35,0,1,1,0-50.69,24.85,24.85,0,0,1,12.76,3.36,22.35,22.35,0,0,1,8.74,9l-10.66,6.24a10.86,10.86,0,0,0-4.36-4.7,12.66,12.66,0,0,0-6.58-1.73,12.41,12.41,0,0,0-9.22,3.7A14,14,0,0,0,725,338a12.41,12.41,0,0,0,9.22,3.7,13.14,13.14,0,0,0,6.67-1.68,10.57,10.57,0,0,0,4.37-4.66L756,341.52a24,24,0,0,1-8.93,9.08A24.6,24.6,0,0,1,734.34,354Z"
          transform="translate(-424.35 -285.46)"/>
    <path d="M794.62,304.66H807v48H794.62v-5.37q-4.51,6.72-14.3,6.72a17.37,17.37,0,0,1-13-5.28q-5.13-5.28-5.13-14.6V304.66h12.38V332.6q0,4.8,2.59,7.34a9.43,9.43,0,0,0,6.91,2.55,10.21,10.21,0,0,0,7.68-3q2.88-3,2.88-8.93Z"
          transform="translate(-424.35 -285.46)"/>
    <path d="M830.72,312.92a12.88,12.88,0,0,1,5.71-6.91,17.4,17.4,0,0,1,8.88-2.31v13.82a14.65,14.65,0,0,0-10.13,2.31q-4.45,3-4.46,9.89v22.94H818.33v-48h12.39Z"
          transform="translate(-424.35 -285.46)"/>
    <path d="M861.15,333.75q2.49,9,13.54,9,7.09,0,10.75-4.8l10,5.76Q888.31,354,874.49,354q-11.9,0-19.1-7.2t-7.2-18.15a24.86,24.86,0,0,1,7.1-18.1q7.11-7.24,18.24-7.24A22.91,22.91,0,0,1,891,310.61a25.37,25.37,0,0,1,6.86,18.05,29,29,0,0,1-.48,5.09Zm-.19-9.6h24.48a11.64,11.64,0,0,0-4.37-7.3,12.53,12.53,0,0,0-7.54-2.4,13,13,0,0,0-8.25,2.55A12.1,12.1,0,0,0,861,324.15Z"
          transform="translate(-424.35 -285.46)"/>
    <path d="M942.46,285.46h12.39v67.2H942.46V347q-5.48,7-15.55,7a21.84,21.84,0,0,1-16.56-7.35,27,27,0,0,1,0-36,21.87,21.87,0,0,1,16.56-7.34q10.08,0,15.55,7Zm-22.8,53a13,13,0,0,0,9.55,3.79,12.84,12.84,0,0,0,9.51-3.79,14.57,14.57,0,0,0,0-19.49,12.81,12.81,0,0,0-9.51-3.8,13,13,0,0,0-9.55,3.8,14.42,14.42,0,0,0,0,19.49Z"
          transform="translate(-424.35 -285.46)"/>
</svg>